<svg width="128" height="128" viewBox="0 0 128 128" fill="none" xmlns="http://www.w3.org/2000/svg">
<rect width="128" height="128" rx="64" fill="black"/>
<g clip-path="url(#clip0_6_9)">
<path d="M19.032 54.1738C19.032 53.3884 19.5285 52.6887 20.2699 52.4294L106.488 22.2698C107.916 21.7704 109.306 23.1038 108.867 24.551L107.058 30.5095C106.885 31.0792 106.454 31.5285 105.891 31.72C78.4194 41.053 41.4161 53.1503 37.9425 54.8871C34.8459 56.4354 27.725 58.4358 21.4815 60.4527C20.2767 60.8419 19.032 59.9486 19.032 58.6823L19.032 54.1738Z" fill="white"/>
<path d="M27.501 61.0402C27.501 59.7592 26.2291 58.8666 25.0244 59.3023L23.1581 59.9774L45.1499 52.308L39.2158 54.1339C38.4555 54.3679 37.9301 55.0622 37.9118 55.8576L36.7829 104.835C36.7597 105.839 35.9394 106.641 34.9353 106.641H29.349C28.3284 106.641 27.501 105.813 27.501 104.793V61.0402Z" fill="white"/>
<path d="M37.1193 96.8135C37.3397 97.2843 37.8126 97.5852 38.3326 97.5852H106.413C107.433 97.5852 108.261 98.4126 108.261 99.4333V104.793C108.261 105.813 107.433 106.641 106.413 106.641H34.7911C33.6099 106.641 32.7319 105.548 32.9865 104.394L34.5979 97.0927C34.8736 95.8432 36.5768 95.6545 37.1193 96.8135Z" fill="white"/>
<path d="M45.7967 83.7248C45.7967 82.7042 46.6241 81.8768 47.6447 81.8768H101.608C102.628 81.8768 103.456 82.7042 103.456 83.7248V87.6058C103.456 88.6264 102.628 89.4538 101.608 89.4538H47.6447C46.6241 89.4538 45.7967 88.6264 45.7967 87.6058V83.7248Z" fill="white"/>
</g>
<defs>
<clipPath id="clip0_6_9">
<rect width="90" height="84.6407" fill="white" transform="translate(19 22)"/>
</clipPath>
</defs>
</svg>
